<?xml version="1.0" standalone="no"?><!DOCTYPE svg PUBLIC "-//W3C//DTD SVG 1.1//EN" "http://www.w3.org/Graphics/SVG/1.1/DTD/svg11.dtd"><svg t="1542802384537" class="icon" style="" viewBox="0 0 1024 1024" version="1.1" xmlns="http://www.w3.org/2000/svg" p-id="2421" xmlns:xlink="http://www.w3.org/1999/xlink" width="32" height="32"><defs><style type="text/css"></style></defs><path d="M951.770444 816.974923 738.383472 601.832981c-2.490727-2.539846-5.216815-4.399193-7.845689-6.485715 36.041868-55.770188 57.118905-122.216529 57.118905-193.730283 0-196.60475-158.070108-355.940688-353.065198-355.940688-194.936761 0-353.055988 159.335938-353.055988 355.940688 0 196.608843 158.119227 355.886453 353.055988 355.886453 70.943772 0 136.897903-21.319561 192.31812-57.611116 1.99954 2.675946 3.858888 5.364171 6.297426 7.854898l213.384925 215.192084c14.58723 14.638395 33.564443 21.957081 52.593845 21.957081 19.020192 0 38.003546-7.318686 52.581566-21.908986C980.748429 893.669676 980.748429 846.24762 951.770444 816.974923M434.591491 645.153626c-133.179208 0-241.581104-109.286032-241.581104-243.536642 0-134.257773 108.401896-243.540735 241.581104-243.540735 133.141346 0 241.546312 109.282962 241.546312 243.540735C676.137803 535.867594 567.73386 645.153626 434.591491 645.153626" p-id="2422"></path></svg>